<svg id="visual" viewBox="0 0 1920 1080" width="1920" height="1080" xmlns="http://www.w3.org/2000/svg" xmlns:xlink="http://www.w3.org/1999/xlink" version="1.1"><rect x="0" y="0" width="1920" height="1080" fill="#fff6e0"></rect><path d="M0 696L45.7 684.7C91.3 673.3 182.7 650.7 274.2 626.2C365.7 601.7 457.3 575.3 548.8 583.2C640.3 591 731.7 633 823 663C914.3 693 1005.7 711 1097 696.3C1188.3 681.7 1279.7 634.3 1371.2 617.3C1462.7 600.3 1554.3 613.7 1645.8 632.3C1737.3 651 1828.7 675 1874.3 687L1920 699L1920 1081L1874.3 1081C1828.7 1081 1737.3 1081 1645.8 1081C1554.3 1081 1462.7 1081 1371.2 1081C1279.7 1081 1188.3 1081 1097 1081C1005.7 1081 914.3 1081 823 1081C731.7 1081 640.3 1081 548.8 1081C457.3 1081 365.7 1081 274.2 1081C182.7 1081 91.3 1081 45.7 1081L0 1081Z" fill="#ffe49f"></path><path d="M0 745L45.7 730.5C91.3 716 182.7 687 274.2 665.8C365.7 644.7 457.3 631.3 548.8 635C640.3 638.7 731.7 659.3 823 682C914.3 704.7 1005.7 729.3 1097 748.3C1188.3 767.3 1279.7 780.7 1371.2 775.2C1462.7 769.7 1554.3 745.3 1645.8 721.2C1737.3 697 1828.7 673 1874.3 661L1920 649L1920 1081L1874.3 1081C1828.7 1081 1737.3 1081 1645.8 1081C1554.3 1081 1462.7 1081 1371.2 1081C1279.7 1081 1188.3 1081 1097 1081C1005.7 1081 914.3 1081 823 1081C731.7 1081 640.3 1081 548.8 1081C457.3 1081 365.7 1081 274.2 1081C182.7 1081 91.3 1081 45.7 1081L0 1081Z" fill="#fedc87"></path><path d="M0 780L45.7 789C91.3 798 182.7 816 274.2 819.7C365.7 823.3 457.3 812.7 548.8 800.8C640.3 789 731.7 776 823 784.7C914.3 793.3 1005.7 823.7 1097 813.7C1188.3 803.7 1279.7 753.3 1371.2 731.2C1462.7 709 1554.3 715 1645.8 731.5C1737.3 748 1828.7 775 1874.3 788.5L1920 802L1920 1081L1874.3 1081C1828.7 1081 1737.3 1081 1645.8 1081C1554.3 1081 1462.7 1081 1371.2 1081C1279.7 1081 1188.3 1081 1097 1081C1005.7 1081 914.3 1081 823 1081C731.7 1081 640.3 1081 548.8 1081C457.3 1081 365.7 1081 274.2 1081C182.7 1081 91.3 1081 45.7 1081L0 1081Z" fill="#fdd36f"></path><path d="M0 873L45.7 864.5C91.3 856 182.7 839 274.2 829.7C365.7 820.3 457.3 818.7 548.8 817.8C640.3 817 731.7 817 823 826.2C914.3 835.3 1005.7 853.7 1097 867.7C1188.3 881.7 1279.7 891.3 1371.2 887C1462.7 882.7 1554.3 864.3 1645.8 857.3C1737.3 850.3 1828.7 854.7 1874.3 856.8L1920 859L1920 1081L1874.3 1081C1828.7 1081 1737.3 1081 1645.8 1081C1554.3 1081 1462.7 1081 1371.2 1081C1279.7 1081 1188.3 1081 1097 1081C1005.7 1081 914.3 1081 823 1081C731.7 1081 640.3 1081 548.8 1081C457.3 1081 365.7 1081 274.2 1081C182.7 1081 91.3 1081 45.7 1081L0 1081Z" fill="#fdcb55"></path><path d="M0 907L45.7 903.3C91.3 899.7 182.7 892.3 274.2 903C365.7 913.7 457.3 942.3 548.8 955.5C640.3 968.7 731.7 966.3 823 949.5C914.3 932.7 1005.7 901.3 1097 893C1188.3 884.7 1279.7 899.3 1371.2 909.3C1462.7 919.3 1554.3 924.7 1645.8 927.7C1737.3 930.7 1828.7 931.3 1874.3 931.7L1920 932L1920 1081L1874.3 1081C1828.7 1081 1737.3 1081 1645.8 1081C1554.3 1081 1462.7 1081 1371.2 1081C1279.7 1081 1188.3 1081 1097 1081C1005.7 1081 914.3 1081 823 1081C731.7 1081 640.3 1081 548.8 1081C457.3 1081 365.7 1081 274.2 1081C182.7 1081 91.3 1081 45.7 1081L0 1081Z" fill="#fcc139"></path><path d="M0 974L45.7 982C91.3 990 182.7 1006 274.2 1010C365.7 1014 457.3 1006 548.8 998.3C640.3 990.7 731.7 983.3 823 985.3C914.3 987.3 1005.7 998.7 1097 993.5C1188.3 988.3 1279.7 966.7 1371.2 965.8C1462.7 965 1554.3 985 1645.8 999.5C1737.3 1014 1828.7 1023 1874.3 1027.5L1920 1032L1920 1081L1874.3 1081C1828.7 1081 1737.3 1081 1645.8 1081C1554.3 1081 1462.7 1081 1371.2 1081C1279.7 1081 1188.3 1081 1097 1081C1005.7 1081 914.3 1081 823 1081C731.7 1081 640.3 1081 548.8 1081C457.3 1081 365.7 1081 274.2 1081C182.7 1081 91.3 1081 45.7 1081L0 1081Z" fill="#fcb80c"></path></svg>